<svg xmlns="http://www.w3.org/2000/svg" fill="none" viewBox="0 0 412 412"><path stroke="#00F" stroke-linejoin="round" stroke-width="3" d="M366.73 205.865 205.865 45 45 205.865 205.865 366.73 366.73 205.865Z"/><g filter="url(#a)" opacity=".07"><path fill="#00F" d="M205.809 336.159c71.991 0 130.351-58.36 130.351-130.35 0-71.991-58.36-130.351-130.351-130.351S75.458 133.818 75.458 205.809c0 71.99 58.36 130.35 130.351 130.35Z"/></g><path fill="#000" d="M151.253 216.409v29.581l25.637 14.791 25.637-14.792v-29.584l-25.637-14.787-25.637 14.791ZM235.56 201.618l-25.637 14.79v29.581l25.637 14.792 25.638-14.792v-29.585l-25.638-14.786ZM231.845 180.444l-12.81-7.42-.013-14.789-12.797-7.399-25.619 14.792v29.58l25.619 14.791 25.62-14.791v-14.764ZM231.845 180.444l12.81-7.425v-14.788l-12.79-7.395-12.843 7.399 12.843 7.379-.02 14.83Z"/><mask id="b" fill="#fff"><rect width="124.533" height="32.449" x="144.117" y="304.036" rx="1"/></mask><rect width="124.533" height="32.449" x="144.117" y="304.036" fill="#FDFDFE" rx="1"/><rect width="124.533" height="32.449" x="144.117" y="304.036" stroke="#00F" stroke-linejoin="round" stroke-width="5" mask="url(#b)" rx="1"/><path fill="#000" d="M189.681 324.984c-.728 0-1.363-.144-1.904-.434a3.198 3.198 0 0 1-1.274-1.218c-.308-.532-.485-1.148-.532-1.848l1.722-.098c.065.42.182.784.35 1.092.177.299.406.532.686.7.28.159.607.238.98.238s.686-.051.938-.154c.261-.102.457-.247.588-.434.131-.196.196-.424.196-.686 0-.289-.07-.532-.21-.728-.131-.205-.359-.387-.686-.546-.327-.158-.789-.312-1.386-.462-.691-.168-1.255-.373-1.694-.616-.439-.242-.765-.546-.98-.91-.205-.373-.308-.826-.308-1.358 0-.578.14-1.087.42-1.526.28-.448.677-.793 1.19-1.036.513-.242 1.115-.364 1.806-.364.653 0 1.227.14 1.722.42.504.271.905.649 1.204 1.134.308.486.499 1.05.574 1.694l-1.75.098a2.459 2.459 0 0 0-.28-.938 1.533 1.533 0 0 0-.602-.616 1.73 1.73 0 0 0-.896-.224c-.513 0-.915.117-1.204.35-.28.224-.42.537-.42.938 0 .271.061.5.182.686.121.178.322.332.602.462.289.122.691.248 1.204.378.793.187 1.428.425 1.904.714.476.28.821.626 1.036 1.036.224.402.336.887.336 1.456 0 .542-.145 1.027-.434 1.456-.289.42-.7.752-1.232.994-.532.234-1.148.35-1.848.35Zm4.293-7.728h1.736l.77 4.998.798-3.906h1.4l.798 3.906.77-4.998h1.736l-1.456 7.504h-1.68l-.868-3.864-.868 3.864h-1.68l-1.456-7.504Zm11.432 7.672c-.467 0-.896-.084-1.288-.252a2.29 2.29 0 0 1-.924-.756 1.924 1.924 0 0 1-.35-1.148c0-.597.196-1.073.588-1.428.392-.364.947-.62 1.666-.77l2.324-.49c0-.504-.112-.882-.336-1.134-.224-.252-.551-.378-.98-.378-.411 0-.733.089-.966.266-.233.178-.387.444-.462.798l-1.708-.112c.14-.746.485-1.339 1.036-1.778.551-.438 1.251-.658 2.1-.658.952 0 1.685.271 2.198.812.523.542.784 1.307.784 2.296v2.646c0 .187.033.318.098.392.075.066.201.098.378.098h.392v1.428a3.65 3.65 0 0 1-.686.056c-.551 0-.971-.14-1.26-.42-.28-.289-.429-.709-.448-1.26h.21c-.065.514-.322.943-.77 1.288-.439.336-.971.504-1.596.504Zm.21-1.4c.373 0 .695-.065.966-.196.271-.14.476-.331.616-.574a1.7 1.7 0 0 0 .224-.882v-.518l-1.862.378c-.345.066-.597.178-.756.336a.798.798 0 0 0-.224.588c0 .271.089.486.266.644.177.15.434.224.77.224Zm7.919-6.272h1.134l.154 1.876h-.14c.084-.606.284-1.068.602-1.386.326-.326.76-.49 1.302-.49h1.708v1.47h-1.526c-.355 0-.649.061-.882.182a1.136 1.136 0 0 0-.518.546c-.112.243-.168.546-.168.91v4.396h-1.666v-7.504Zm-1.792 6.076h5.712v1.428h-5.712v-1.428Zm0-6.076h2.66v1.428h-2.66v-1.428Zm7.61 0h1.428l.07 1.68-.196-.042c.103-.569.308-1.012.616-1.33.308-.317.667-.476 1.078-.476.42 0 .747.154.98.462.243.308.406.775.49 1.4h-.21c.112-.588.308-1.045.588-1.372.289-.326.653-.49 1.092-.49.588 0 1.013.215 1.274.644.271.43.406 1.106.406 2.03v4.998h-1.652v-4.774c0-.55-.047-.933-.14-1.148-.084-.214-.238-.322-.462-.322a.582.582 0 0 0-.406.154c-.103.103-.182.266-.238.49a3.431 3.431 0 0 0-.084.84v4.76h-1.652v-4.774c0-.532-.047-.91-.14-1.134-.093-.224-.252-.336-.476-.336a.582.582 0 0 0-.406.154c-.103.103-.182.266-.238.49-.047.215-.07.495-.07.84v4.76h-1.652v-7.504Z"/><defs><filter id="a" width="410.702" height="410.702" x=".458" y=".458" color-interpolation-filters="sRGB" filterUnits="userSpaceOnUse"><feFlood flood-opacity="0" result="BackgroundImageFix"/><feBlend in="SourceGraphic" in2="BackgroundImageFix" result="shape"/><feGaussianBlur result="effect1_foregroundBlur_31_311" stdDeviation="37.5"/></filter></defs></svg>