<svg xmlns="http://www.w3.org/2000/svg" viewBox="0 0 400 213.98"><defs><style>.cls-1{fill:#fafafa;}.cls-2{fill:#242424;}</style></defs><title>Swarm Logo &amp;amp; Lettering 4</title><g id="Layer_2" data-name="Layer 2"><g id="Layer_1-2" data-name="Layer 1"><rect class="cls-1" width="400" height="213.98"/><path class="cls-2" d="M206.24,90.06l-3.54,24.65s-.06,0-.07,0l-3.1-24.65s0,0,0,0h-8.82a0,0,0,0,0,0,0l-3.11,24.65s-.06,0-.07,0l-3.54-24.65a0,0,0,0,0,0,0h-5.38s0,0,0,0L183,118.6a0,0,0,0,0,0,0h8.8a0,0,0,0,0,0,0L195.05,94s.06,0,.07,0l3.21,24.61a0,0,0,0,0,0,0h8.81a0,0,0,0,0,0,0l4.49-28.53a0,0,0,0,0,0,0h-5.37S206.24,90,206.24,90.06Z"/><path class="cls-2" d="M305,91.39a6.52,6.52,0,0,0-5.19-2.14A6.74,6.74,0,0,0,293.48,93h0a5.85,5.85,0,0,0-1.86-2.62A5.61,5.61,0,0,0,288,89.25a6.26,6.26,0,0,0-3.55,1,5.78,5.78,0,0,0-2,2.45V90.06s0,0,0,0h-5.24s0,0,0,0v28.53a0,0,0,0,0,0,0h5.24a0,0,0,0,0,0,0V99.09a5.72,5.72,0,0,1,1-3.5,3.14,3.14,0,0,1,2.7-1.25,2.85,2.85,0,0,1,2.3,1,4.08,4.08,0,0,1,.89,2.73v20.5s0,0,0,0h5.25a0,0,0,0,0,0,0V99.42a6.08,6.08,0,0,1,1-3.89,3.22,3.22,0,0,1,2.61-1.19,2.75,2.75,0,0,1,2.44,1,4.9,4.9,0,0,1,.81,2.92v20.28s0,0,0,0h5.28V96.86A8.18,8.18,0,0,0,305,91.39Z"/><path class="cls-2" d="M243.47,115.52l-3.32,3.71h-.05l-5.86-5.07s0,0,0,0l-7,4.09a7.38,7.38,0,0,1-3.77,1,7.91,7.91,0,0,1-5.34-2.13,7.28,7.28,0,0,1-2.3-5.45,7.54,7.54,0,0,1,3.82-6.58L233.76,97s0,0,0,0v-1.8a0,0,0,0,0,0,0H217.23s0,0,0,0v-5s0,0,0,0H238.8a0,0,0,0,1,0,0v21.36s0,0,0,0l4.62,4A0,0,0,0,1,243.47,115.52Zm-18.8-1.66,9.09-5.28s0,0,0,0v-5.7a0,0,0,0,0-.06,0l-11.58,6.65a2.46,2.46,0,0,0-1.29,2.2,2.59,2.59,0,0,0,2.53,2.53A2.51,2.51,0,0,0,224.67,113.86Z"/><path class="cls-2" d="M268.75,92a9.1,9.1,0,0,0-6.67-2.78,9,9,0,0,0-7.48,3.64,0,0,0,0,1,0,0l-3.34-3.06a0,0,0,0,0-.05,0l-3.29,3.67a0,0,0,0,0,0,0l4.74,4.3a0,0,0,0,1,0,0v15.7a0,0,0,0,1,0,0h-4.71s0,0,0,0v4.93a0,0,0,0,0,0,0h17s0,0,0,0v-4.93a0,0,0,0,0,0,0h-7.19a0,0,0,0,1,0,0V98.93a4.61,4.61,0,0,1,4-4.66,4.45,4.45,0,0,1,4.87,4.42v1.64s0,0,0,0h4.93s0,0,0,0V98.69A9.1,9.1,0,0,0,268.75,92Z"/><path class="cls-2" d="M173.32,106.74a5.41,5.41,0,0,0-1.5-2,6.58,6.58,0,0,0-2.36-1.44,15.31,15.31,0,0,0-2.72-1c-.94-.25-2-.52-3.08-.73a15.43,15.43,0,0,1-4.88-1.64,2.85,2.85,0,0,1-1.51-2.47,2.81,2.81,0,0,1,1.35-2.59,5.91,5.91,0,0,1,4.4-.76,8.68,8.68,0,0,1,3.86,2.11c.23.19,2.51,2.3,2.47,2.35l3.29-3.73s-1.58-1.6-2.33-2.26A13,13,0,0,0,164,89.34a12.18,12.18,0,0,0-7.23,1.1,9.58,9.58,0,0,0-1.67,1.09,7.57,7.57,0,0,0-2.88,6.1c0,2.6.82,4.45,2.5,5.66a17.33,17.33,0,0,0,6.73,2.73,25.41,25.41,0,0,1,5.53,1.65,2.29,2.29,0,0,1,1.59,2.23,3.36,3.36,0,0,1-1.62,3,8.35,8.35,0,0,1-8.24,0,19.32,19.32,0,0,1-2.85-2.27c-.71-.6-1.38-1.25-2.07-1.89l0,0-3.2,3.85s1.56,1.46,1.7,1.58a15.66,15.66,0,0,0,7.41,4.21,15.26,15.26,0,0,0,3.16.32,12.45,12.45,0,0,0,7.85-2.45,8.17,8.17,0,0,0,3.27-6.83A6.14,6.14,0,0,0,173.32,106.74Z"/><polygon class="cls-2" points="103.61 122.17 103.61 107.08 90.14 99.51 76.67 107.08 76.67 122.17 90.14 129.73 103.61 122.17"/><polygon class="cls-2" points="121.2 87.1 121.26 87.13 128.38 83.14 128.38 75.08 121.2 71.05 114.08 75.05 114.07 75.11 114.07 83.1 121.2 87.1"/><polygon class="cls-2" points="107.5 107.08 107.5 122.17 120.97 129.73 134.44 122.17 134.44 107.08 120.97 99.51 107.5 107.08"/><polygon class="cls-2" points="112.38 86.12 110.61 85.13 110.61 83.1 110.61 76.24 105.45 73.16 92 80.72 92 95.81 105.47 103.37 118.94 95.81 118.94 89.8 112.38 86.12"/></g></g></svg>